<svg width="22" height="22" viewBox="0 0 22 22" fill="none" xmlns="http://www.w3.org/2000/svg">
<g clip-path="url(#clip0_210_3105)">
<path d="M16.368 0.549988C16.698 0.615988 17.05 0.659988 17.38 0.747988C19.932 1.45199 21.648 3.95999 21.384 6.62199C21.252 7.91999 20.746 9.04199 19.822 9.96599C16.544 13.266 13.266 16.544 9.96601 19.844C9.04202 20.768 7.94202 21.274 6.64402 21.428C6.60002 21.428 6.57802 21.45 6.53402 21.472C6.22602 21.472 5.91802 21.472 5.58802 21.472C5.54402 21.45 5.47802 21.45 5.43402 21.428C3.16802 21.076 1.65002 19.844 0.836015 17.688C0.682015 17.27 0.638015 16.808 0.528015 16.39C0.528015 16.082 0.528015 15.774 0.528015 15.444C0.550015 15.4 0.550015 15.356 0.572015 15.312C0.726015 14.014 1.25402 12.914 2.15602 11.99C5.43402 8.71199 8.71202 5.45599 11.968 2.17799C12.628 1.51799 13.398 1.03399 14.3 0.791988C14.674 0.681988 15.048 0.637988 15.4 0.549988C15.73 0.549988 16.038 0.549988 16.368 0.549988ZM16.61 11.33C17.446 10.516 18.37 9.74599 19.162 8.84399C20.174 7.69999 20.438 6.31399 19.998 4.83999C19.074 1.75999 15.224 0.747988 12.914 2.96999C12.144 3.71799 11.396 4.48799 10.626 5.23599C10.604 5.25799 10.604 5.27999 10.604 5.27999C12.628 7.32599 14.652 9.34999 16.61 11.33ZM5.30202 10.626C4.51002 11.418 3.67402 12.188 2.92602 13.002C1.82602 14.19 1.51802 15.62 1.98002 17.182C2.90402 20.24 6.71002 21.252 9.02002 19.074C9.79002 18.348 10.494 17.6 11.242 16.852C11.286 16.808 11.33 16.764 11.374 16.72C9.32802 14.674 7.32602 12.65 5.30202 10.626ZM6.22602 9.70199C8.25002 11.726 10.274 13.75 12.254 15.752C13.42 14.586 14.586 13.42 15.73 12.276C13.728 10.274 11.704 8.24999 9.70201 6.22599C8.53601 7.39199 7.37002 8.55799 6.22602 9.70199Z" fill="#414141"/>
<path d="M18.634 5.89599C18.634 6.20399 18.348 6.48999 18.018 6.48999C17.688 6.48999 17.402 6.20399 17.402 5.85199C17.402 5.54399 17.688 5.25799 18.018 5.25799C18.37 5.27999 18.634 5.54399 18.634 5.89599Z" fill="#414141"/>
<path d="M16.698 3.95999C16.698 4.26799 16.412 4.55399 16.104 4.55399C15.774 4.55399 15.488 4.26799 15.488 3.91599C15.488 3.60799 15.774 3.32199 16.104 3.32199C16.412 3.32199 16.698 3.60799 16.698 3.95999Z" fill="#414141"/>
<path d="M13.53 5.87399C13.53 5.56599 13.794 5.27999 14.124 5.27999C14.454 5.27999 14.74 5.56599 14.74 5.89599C14.74 6.20399 14.454 6.48999 14.124 6.48999C13.816 6.51199 13.53 6.20399 13.53 5.87399Z" fill="#414141"/>
<path d="M16.698 5.89599C16.698 6.20399 16.412 6.48999 16.104 6.48999C15.774 6.48999 15.488 6.20399 15.488 5.85199C15.488 5.54399 15.774 5.25799 16.104 5.25799C16.412 5.27999 16.698 5.54399 16.698 5.89599Z" fill="#414141"/>
<path d="M16.698 7.85399C16.698 8.16199 16.412 8.42599 16.082 8.42599C15.752 8.42599 15.466 8.13999 15.466 7.78799C15.466 7.47999 15.774 7.19399 16.082 7.19399C16.434 7.21599 16.698 7.50199 16.698 7.85399Z" fill="#414141"/>
<path d="M3.91602 16.72C3.58602 16.72 3.32202 16.412 3.32202 16.06C3.32202 15.752 3.63002 15.466 3.96002 15.488C4.29002 15.51 4.55402 15.796 4.55402 16.148C4.53202 16.478 4.24602 16.742 3.91602 16.72Z" fill="#414141"/>
<path d="M5.25802 18.04C5.25802 17.732 5.54402 17.446 5.85202 17.446C6.18202 17.446 6.46802 17.732 6.46802 18.084C6.46802 18.392 6.18202 18.678 5.85202 18.678C5.54402 18.678 5.25802 18.392 5.25802 18.04Z" fill="#414141"/>
<path d="M5.85202 16.72C5.52202 16.72 5.25802 16.434 5.25802 16.082C5.25802 15.774 5.56602 15.488 5.87402 15.51C6.20402 15.51 6.49002 15.818 6.46802 16.17C6.46802 16.456 6.18202 16.72 5.85202 16.72Z" fill="#414141"/>
<path d="M5.25802 14.146C5.25802 13.838 5.54402 13.574 5.87402 13.574C6.20402 13.574 6.49002 13.86 6.49002 14.212C6.49002 14.52 6.18202 14.806 5.87402 14.806C5.54402 14.784 5.25802 14.498 5.25802 14.146Z" fill="#414141"/>
<path d="M7.78802 16.72C7.45802 16.72 7.17202 16.412 7.19402 16.06C7.21601 15.752 7.52401 15.488 7.83201 15.488C8.16201 15.51 8.42601 15.796 8.42601 16.148C8.40402 16.478 8.11802 16.742 7.78802 16.72Z" fill="#414141"/>
</g>
<defs>
<clipPath id="clip0_210_3105">
<rect width="22" height="22" fill="white"/>
</clipPath>
</defs>
</svg>
