<svg width="22" height="22" viewBox="0 0 22 22" fill="none" xmlns="http://www.w3.org/2000/svg">
<path d="M11.8768 15.676L11.3113 15.2882L10.7458 15.676L5.96397 18.9549C5.72955 19.037 5.54969 19.0072 5.33483 18.8652C5.08983 18.7032 5 18.532 5 18.2502V3.74076C5 3.54724 5.05914 3.39082 5.22498 3.22498C5.39082 3.05914 5.54724 3 5.74076 3H16.8818C17.0753 3 17.2317 3.05914 17.3976 3.22498C17.5634 3.39082 17.6226 3.54724 17.6226 3.74076V18.2502C17.6226 18.532 17.5327 18.7032 17.2877 18.8652C17.0729 19.0072 16.893 19.037 16.6586 18.9549L11.8768 15.676Z" stroke="#007AFF" stroke-width="2"/>
</svg>
