<svg width="32" height="32" viewBox="0 0 32 32" fill="none" xmlns="http://www.w3.org/2000/svg">
<path d="M15.791 20.9926C15.4409 20.9926 15.1489 20.8747 14.915 20.6387C14.681 20.4027 14.5641 20.1103 14.5641 19.7614V4.23545L12.4709 6.32858C12.2452 6.5502 11.963 6.66101 11.6244 6.66101C11.2859 6.66101 10.9902 6.53746 10.7376 6.29035C10.506 6.04324 10.3902 5.7498 10.3902 5.41002C10.3902 5.07022 10.5092 4.78131 10.7472 4.54329L14.9334 0.357036C15.0566 0.233912 15.1917 0.143625 15.3389 0.086175C15.4862 0.0287252 15.6383 0 15.7953 0C15.9523 0 16.1045 0.0287252 16.2517 0.086175C16.3989 0.143625 16.5341 0.233912 16.6572 0.357036L20.868 4.56789C21.0979 4.79774 21.2169 5.08503 21.2251 5.42978C21.2333 5.77453 21.1139 6.06592 20.8668 6.30394C20.6196 6.54199 20.3262 6.66101 19.9864 6.66101C19.6466 6.66101 19.3577 6.54199 19.1197 6.30394L17.0265 4.23545V19.7614C17.0265 20.1103 16.9081 20.4027 16.6713 20.6387C16.4345 20.8747 16.1411 20.9926 15.791 20.9926ZM6.46246 32C5.79759 32 5.22096 31.7558 4.73258 31.2674C4.24419 30.779 4 30.2024 4 29.5375V11.5859C4 10.9211 4.24419 10.3445 4.73258 9.85605C5.22096 9.36767 5.79759 9.12348 6.46246 9.12348H10.8704C11.2192 9.12348 11.5116 9.24189 11.7476 9.4787C11.9836 9.71552 12.1016 10.009 12.1016 10.359C12.1016 10.7091 11.9836 11.0011 11.7476 11.235C11.5116 11.469 11.2192 11.5859 10.8704 11.5859H6.46246V29.5375H25.1774V11.5859H20.7203C20.3714 11.5859 20.079 11.4675 19.843 11.2307C19.607 10.9939 19.489 10.7005 19.489 10.3504C19.489 10.0003 19.607 9.70832 19.843 9.47438C20.079 9.24044 20.3714 9.12348 20.7203 9.12348H25.1774C25.8423 9.12348 26.4189 9.36767 26.9073 9.85605C27.3957 10.3445 27.6399 10.9211 27.6399 11.5859V29.5375C27.6399 30.2024 27.3957 30.779 26.9073 31.2674C26.4189 31.7558 25.8423 32 25.1774 32H6.46246Z" fill="#7B7B7B"/>
</svg>
