<svg width="32" height="32" viewBox="0 0 32 32" fill="none" xmlns="http://www.w3.org/2000/svg">
<path d="M14.7064 29.3964L14.7083 29.3982C15.0703 29.7345 15.4921 29.9 16 29.9C16.5079 29.9 16.9297 29.7345 17.2916 29.3982L17.2937 29.3963L19.3817 27.4778L19.3819 27.4776C22.219 24.8737 24.6979 22.3606 26.8199 19.9384C28.8914 17.574 29.9 15.0972 29.9 12.498C29.9 10.4326 29.2114 8.73168 27.8386 7.35995C26.465 5.98745 24.7702 5.29999 22.72 5.29999C21.5431 5.29999 20.4284 5.56701 19.37 6.10332C18.3181 6.63632 17.3232 7.47443 16.39 8.63805L15.9829 9.14574L15.5972 8.62153C14.7502 7.47018 13.7785 6.63826 12.6854 6.107C11.5737 5.56671 10.4401 5.29999 9.27996 5.29999C7.22977 5.29999 5.53497 5.98745 4.16138 7.35995C2.78858 8.73169 2.09998 10.4326 2.09998 12.498C2.09998 15.0968 3.11031 17.5714 5.1855 19.9317C7.31195 22.3504 9.78515 24.8618 12.6064 27.4659L14.7064 29.3964ZM14.7064 29.3964L12.6071 27.4666L14.7064 29.3964Z" fill="#FF0000" stroke="white"/>
</svg>
