<svg width="22" height="22" viewBox="0 0 22 22" fill="none" xmlns="http://www.w3.org/2000/svg">
<path d="M11.297 4.664C12.705 4.6695 14.399 4.8345 16.06 5.2965C16.984 5.5495 17.875 5.8905 18.6945 6.402C19.0575 6.633 19.393 6.897 19.6625 7.238C20.1465 7.854 20.141 8.503 19.646 9.119C19.2885 9.559 18.832 9.867 18.348 10.1365C17.6275 10.538 17.622 10.5435 16.8575 10.2905C15.378 9.7955 13.849 9.548 12.298 9.46C10.296 9.3445 8.31601 9.471 6.36351 9.9385C5.84651 10.065 5.33501 10.2135 4.83451 10.406C4.60351 10.494 4.37801 10.483 4.14151 10.373C3.70151 10.1695 3.28351 9.9385 2.89851 9.647C2.70051 9.493 2.51901 9.3225 2.35951 9.1245C1.84801 8.4865 1.83701 7.854 2.34851 7.216C2.78301 6.6715 3.36601 6.3195 3.97651 6.0225C5.25801 5.401 6.62751 5.0765 8.03551 4.8785C9.01451 4.741 10.0045 4.675 11.3025 4.675L11.297 4.664Z" fill="#414141"/>
<path d="M20.977 11.5225C20.977 11.8965 20.9605 12.276 20.977 12.65C21.0265 13.5025 20.68 14.1845 20.086 14.7675C19.393 15.444 18.5515 15.8785 17.666 16.2305C16.269 16.7805 14.8115 17.072 13.321 17.226C12.5565 17.303 11.7975 17.3525 11.0275 17.3415C10.3675 17.3305 9.77901 17.1325 9.31701 16.643C8.65151 15.95 8.44251 15.125 8.75601 14.2175C9.06951 13.3045 9.74051 12.7545 10.703 12.6335C11.4345 12.54 12.177 12.584 12.914 12.518C14.795 12.3475 16.6375 12.001 18.3645 11.1925C19.1125 10.8405 19.8 10.406 20.35 9.779C20.4655 9.647 20.603 9.5865 20.7735 9.658C20.933 9.724 20.988 9.856 20.988 10.0265C20.988 10.527 20.988 11.0275 20.988 11.5335L20.977 11.5225ZM10.527 15.268C10.527 15.5485 10.7305 15.7575 11.0055 15.7575C11.2585 15.7575 11.4675 15.554 11.473 15.2955C11.4785 15.026 11.275 14.8115 11.0165 14.806C10.747 14.806 10.5325 15.004 10.527 15.268ZM16.3845 14.663C16.39 14.388 16.1975 14.1845 15.928 14.1735C15.6585 14.1625 15.444 14.3605 15.4385 14.63C15.433 14.8995 15.631 15.114 15.895 15.1195C16.1645 15.1305 16.379 14.927 16.3845 14.663ZM13.849 15.1305C13.849 14.861 13.651 14.652 13.3815 14.652C13.112 14.652 12.903 14.8555 12.903 15.1195C12.903 15.389 13.1065 15.598 13.3705 15.6035C13.64 15.6035 13.849 15.4 13.849 15.136V15.1305Z" fill="#414141"/>
<path d="M7.99702 17.1435C7.14452 17.028 6.30852 16.863 5.48352 16.621C4.54852 16.3515 3.64652 15.9995 2.82152 15.477C2.23302 15.1085 1.71052 14.6685 1.35302 14.0635C1.13852 13.7005 1.01752 13.3045 1.01752 12.881C1.01752 11.924 1.01752 10.967 1.01752 10.01C1.01752 9.84503 1.05602 9.70203 1.22102 9.63603C1.38602 9.56453 1.53452 9.61403 1.65002 9.74603C2.37052 10.5765 3.31102 11.077 4.31202 11.473C5.57152 11.9735 6.88602 12.2485 8.22252 12.4245C8.30502 12.4355 8.39852 12.43 8.46452 12.496C8.58552 12.617 8.53602 12.727 8.43702 12.8425C8.03002 13.3375 7.78252 13.904 7.70552 14.542C7.60652 15.3395 7.78252 16.0765 8.20052 16.7585C8.25552 16.8465 8.30502 16.929 8.24452 17.0335C8.18952 17.127 8.10702 17.1545 8.00802 17.138L7.99702 17.1435Z" fill="#414141"/>
</svg>
