<svg width="22" height="22" viewBox="0 0 22 22" fill="none" xmlns="http://www.w3.org/2000/svg">
<g clip-path="url(#clip0_188_2821)">
<path d="M9.8995 9.58579H8.15383C7.98368 9.19909 7.74061 8.84111 7.42462 8.52513C6.05681 7.15732 3.84268 7.15732 2.47487 8.52513C1.10706 9.89294 1.10706 12.1071 2.47487 13.4749C3.84268 14.8427 6.05681 14.8427 7.42462 13.4749C7.74061 13.1589 7.98147 12.7987 8.15383 12.4142L9.8995 12.4142L9.8995 14.1599C9.5128 14.33 9.15482 14.5731 8.83883 14.8891C7.47103 16.2569 7.47103 18.471 8.83883 19.8388C10.2066 21.2066 12.4208 21.2066 13.7886 19.8388C15.1564 18.471 15.1564 16.2569 13.7886 14.8891C13.4726 14.5731 13.1124 14.3322 12.7279 14.1599L12.7279 1.66619C12.7279 1.35241 12.476 1.1005 12.1622 1.1005C10.9115 1.1005 9.8995 2.11255 9.8995 3.36325L9.8995 9.58579ZM13.7267 12.4142L18.9505 12.4142C20.2012 12.4142 21.2132 11.4022 21.2132 10.1515C21.2132 9.83769 20.9613 9.58579 20.6475 9.58579L13.7267 9.58579V12.4142ZM3.88909 12.0607C3.7498 11.9214 3.63931 11.756 3.56393 11.574C3.48855 11.392 3.44975 11.197 3.44975 11C3.44975 10.803 3.48855 10.608 3.56393 10.426C3.63931 10.244 3.7498 10.0786 3.88909 9.93934C4.02838 9.80005 4.19373 9.68956 4.37572 9.61418C4.55771 9.5388 4.75276 9.5 4.94975 9.5C5.14673 9.5 5.34178 9.5388 5.52377 9.61418C5.70576 9.68956 5.87112 9.80005 6.01041 9.93934C6.1497 10.0786 6.26019 10.244 6.33557 10.426C6.41095 10.608 6.44975 10.803 6.44975 11C6.44975 11.197 6.41095 11.392 6.33557 11.574C6.26019 11.756 6.1497 11.9214 6.01041 12.0607C5.87112 12.1999 5.70576 12.3104 5.52377 12.3858C5.34178 12.4612 5.14673 12.5 4.94975 12.5C4.75276 12.5 4.55771 12.4612 4.37572 12.3858C4.19373 12.3104 4.02838 12.1999 3.88909 12.0607ZM10.253 16.3033C10.3923 16.164 10.5577 16.0535 10.7397 15.9781C10.9217 15.9028 11.1167 15.864 11.3137 15.864C11.5107 15.864 11.7057 15.9028 11.8877 15.9781C12.0697 16.0535 12.2351 16.164 12.3744 16.3033C12.5137 16.4426 12.6241 16.6079 12.6995 16.7899C12.7749 16.9719 12.8137 17.167 12.8137 17.364C12.8137 17.5609 12.7749 17.756 12.6995 17.938C12.6241 18.12 12.5137 18.2853 12.3744 18.4246C12.2351 18.5639 12.0697 18.6744 11.8877 18.7498C11.7057 18.8252 11.5107 18.864 11.3137 18.864C11.1167 18.864 10.9217 18.8252 10.7397 18.7498C10.5577 18.6744 10.3923 18.5639 10.253 18.4246C10.1138 18.2853 10.0033 18.12 9.92789 17.938C9.85251 17.756 9.81371 17.5609 9.81371 17.364C9.81371 17.167 9.85251 16.9719 9.92789 16.7899C10.0033 16.6079 10.1138 16.4426 10.253 16.3033Z" fill="#414141"/>
</g>
<defs>
<clipPath id="clip0_188_2821">
<rect width="22" height="22" fill="white"/>
</clipPath>
</defs>
</svg>
