<svg width="22" height="22" viewBox="0 0 22 22" fill="none" xmlns="http://www.w3.org/2000/svg">
<path d="M16.8123 5.50016C16.8123 7.40803 15.7209 9.08816 14.0622 10.0722V11.0003C14.0622 11.7609 13.4478 12.3754 12.6872 12.3754H8.56207C7.8015 12.3754 7.18702 11.7609 7.18702 11.0003V10.0722C5.52838 9.08387 4.43694 7.40374 4.43694 5.50016C4.43694 2.46218 7.20851 0 10.6246 0C14.0407 0 16.8123 2.46218 16.8123 5.50016ZM8.21831 7.56273C8.58299 7.56273 8.93274 7.41786 9.19061 7.15999C9.44848 6.90212 9.59335 6.55237 9.59335 6.18769C9.59335 5.823 9.44848 5.47325 9.19061 5.21538C8.93274 4.95751 8.58299 4.81264 8.21831 4.81264C7.85362 4.81264 7.50387 4.95751 7.246 5.21538C6.98813 5.47325 6.84326 5.823 6.84326 6.18769C6.84326 6.55237 6.98813 6.90212 7.246 7.15999C7.50387 7.41786 7.85362 7.56273 8.21831 7.56273ZM14.406 6.18769C14.406 5.823 14.2611 5.47325 14.0033 5.21538C13.7454 4.95751 13.3956 4.81264 13.0309 4.81264C12.6663 4.81264 12.3165 4.95751 12.0586 5.21538C11.8008 5.47325 11.6559 5.823 11.6559 6.18769C11.6559 6.55237 11.8008 6.90212 12.0586 7.15999C12.3165 7.41786 12.6663 7.56273 13.0309 7.56273C13.3956 7.56273 13.7454 7.41786 14.0033 7.15999C14.2611 6.90212 14.406 6.55237 14.406 6.18769ZM1.14544 11.7609C1.4849 11.082 2.30993 10.807 2.98885 11.1464L10.6246 14.9622L18.2604 11.1464C18.9393 10.807 19.7644 11.082 20.1038 11.7609C20.4433 12.4398 20.1683 13.2649 19.4893 13.6043L13.7013 16.5005L19.4936 19.3967C20.1726 19.7361 20.4476 20.5612 20.1081 21.2401C19.7687 21.919 18.9436 22.194 18.2647 21.8546L10.6246 18.0388L2.98885 21.8546C2.30993 22.194 1.4849 21.919 1.14544 21.2401C0.805975 20.5612 1.08098 19.7361 1.75991 19.3967L7.54797 16.5005L1.75991 13.6043C1.08098 13.2649 0.805975 12.4398 1.14544 11.7609Z" fill="#414141"/>
</svg>
