<svg width="22" height="22" viewBox="0 0 22 22" fill="none" xmlns="http://www.w3.org/2000/svg">
<path d="M8.86107 10.8472H12.7416V11.9931C12.7416 12.1713 12.8206 12.2922 12.9785 12.3559C13.1363 12.4196 13.2764 12.3903 13.3986 12.2681L15.0486 10.6181C15.2014 10.4625 15.2778 10.281 15.2778 10.0736C15.2778 9.86621 15.2014 9.68612 15.0486 9.53334L13.3986 7.88334C13.2764 7.76112 13.1363 7.73184 12.9785 7.7955C12.8206 7.85916 12.7416 7.98011 12.7416 8.15834V9.31946H8.09719C7.88077 9.31946 7.69934 9.39266 7.55292 9.53907C7.40651 9.68548 7.33331 9.8669 7.33331 10.0833V12.9861C7.33331 13.2025 7.40677 13.384 7.5537 13.5304C7.70062 13.6768 7.88268 13.75 8.09987 13.75C8.31706 13.75 8.49822 13.6768 8.64336 13.5304C8.7885 13.384 8.86107 13.2025 8.86107 12.9861V10.8472ZM10.9992 20.2125C10.8011 20.2125 10.6066 20.1769 10.4156 20.1056C10.2246 20.0343 10.0578 19.9273 9.91526 19.7847L2.21526 12.0847C2.07266 11.9421 1.96571 11.7751 1.89443 11.5836C1.82313 11.3921 1.78748 11.1973 1.78748 10.9992C1.78748 10.8011 1.82313 10.6066 1.89443 10.4156C1.96571 10.2247 2.07266 10.0579 2.21526 9.91529L9.91526 2.21527C10.0578 2.07268 10.2249 1.96574 10.4164 1.89446C10.6079 1.82316 10.8027 1.78751 11.0008 1.78751C11.1988 1.78751 11.3934 1.82316 11.5844 1.89446C11.7753 1.96574 11.9421 2.07268 12.0847 2.21527L19.7847 9.91529C19.9273 10.0579 20.0342 10.2249 20.1055 10.4164C20.1768 10.6079 20.2125 10.8027 20.2125 11.0008C20.2125 11.1989 20.1768 11.3934 20.1055 11.5844C20.0342 11.7754 19.9273 11.9421 19.7847 12.0847L12.0847 19.7847C11.9421 19.9273 11.7751 20.0343 11.5836 20.1056C11.3921 20.1769 11.1973 20.2125 10.9992 20.2125Z" fill="white"/>
</svg>
