<svg width="22" height="22" viewBox="0 0 22 22" fill="none" xmlns="http://www.w3.org/2000/svg">
<g clip-path="url(#clip0_141_4486)">
<path d="M11.8245 7.03694L12.7068 1.75414C12.7794 1.31994 13.1575 1 13.6006 1C13.8871 1 14.1544 1.13331 14.3263 1.36184L14.9719 2.21881H16.9619C17.447 2.21881 17.913 2.41306 18.2567 2.75585L18.9443 3.43763H21.0833C21.5913 3.43763 22 3.84517 22 4.35174V5.26585C22 6.94934 20.6326 8.31288 18.9443 8.31288H17.722H17.1109H16.2973L16.1025 9.47457L11.8245 7.03694ZM15.8886 10.7543V19.2822C15.8886 19.9564 15.3424 20.501 14.6663 20.501H13.444C12.7679 20.501 12.2217 19.9564 12.2217 19.2822V14.8945C11.305 15.363 10.266 15.6258 9.16599 15.6258C8.06593 15.6258 7.02699 15.363 6.11027 14.8945V19.2822C6.11027 19.9564 5.56406 20.501 4.88799 20.501H3.6657C2.98962 20.501 2.44341 19.9564 2.44341 19.2822V10.5144C1.34336 10.0992 0.480117 9.16986 0.182184 7.98152L0.0370379 7.39116C-0.127207 6.73985 0.270036 6.07712 0.927015 5.91334C1.58399 5.74957 2.24479 6.14568 2.40904 6.80079L2.558 7.39116C2.69169 7.93201 3.18061 8.31288 3.74209 8.31288H4.88799H5.49913H11.6029L15.8886 10.7543ZM17.722 4.04704C17.722 3.88541 17.6576 3.73041 17.543 3.61612C17.4284 3.50183 17.2729 3.43763 17.1109 3.43763C16.9488 3.43763 16.7933 3.50183 16.6787 3.61612C16.5641 3.73041 16.4997 3.88541 16.4997 4.04704C16.4997 4.20866 16.5641 4.36367 16.6787 4.47795C16.7933 4.59224 16.9488 4.65644 17.1109 4.65644C17.2729 4.65644 17.4284 4.59224 17.543 4.47795C17.6576 4.36367 17.722 4.20866 17.722 4.04704Z" fill="#414141"/>
</g>
<defs>
<clipPath id="clip0_141_4486">
<rect width="22" height="22" fill="white"/>
</clipPath>
</defs>
</svg>
