<svg width="22" height="22" viewBox="0 0 22 22" fill="none" xmlns="http://www.w3.org/2000/svg">
<path d="M11.002 16.0246C12.2257 16.0246 13.2652 15.5963 14.1205 14.7397C14.9757 13.8831 15.4034 12.843 15.4034 11.6193C15.4034 10.3955 14.9751 9.35605 14.1185 8.50078C13.2619 7.6455 12.2217 7.21787 10.998 7.21787C9.7743 7.21787 8.7348 7.64617 7.87953 8.50276C7.02426 9.35937 6.59662 10.3995 6.59662 11.6232C6.59662 12.8469 7.02492 13.8864 7.88151 14.7417C8.73812 15.597 9.77828 16.0246 11.002 16.0246ZM10.996 14.4326C10.214 14.4326 9.55056 14.1589 9.00577 13.6115C8.46099 13.0641 8.1886 12.3993 8.1886 11.6173C8.1886 10.8352 8.46232 10.1718 9.00976 9.62702C9.55719 9.08224 10.2219 8.80984 11.004 8.80984C11.786 8.80984 12.4494 9.08357 12.9942 9.63101C13.539 10.1784 13.8114 10.8432 13.8114 11.6252C13.8114 12.4073 13.5377 13.0707 12.9902 13.6155C12.4428 14.1603 11.7781 14.4326 10.996 14.4326ZM11 19.2425C8.65718 19.2425 6.52041 18.6116 4.58969 17.3499C2.65898 16.0881 1.17788 14.4096 0.146404 12.3143C0.09397 12.2305 0.0564565 12.1269 0.0338637 12.0036C0.0112879 11.8803 0 11.7528 0 11.6212C0 11.4897 0.0112879 11.3622 0.0338637 11.2389C0.0564565 11.1156 0.09397 11.012 0.146404 10.9282C1.1779 8.83287 2.65899 7.15435 4.58969 5.89261C6.52041 4.63087 8.65718 4 11 4C13.3428 4 15.4796 4.63087 17.4103 5.89261C19.341 7.15435 20.8221 8.83287 21.8536 10.9282C21.906 11.012 21.9435 11.1156 21.9661 11.2389C21.9887 11.3622 22 11.4897 22 11.6212C22 11.7528 21.9887 11.8803 21.9661 12.0036C21.9435 12.1269 21.906 12.2305 21.8536 12.3143C20.8221 14.4096 19.341 16.0881 17.4103 17.3499C15.4796 18.6116 13.3428 19.2425 11 19.2425ZM10.9972 17.5489C13.0032 17.5489 14.8459 17.0112 16.5254 15.9357C18.2049 14.8603 19.485 13.4221 20.3657 11.6212C19.485 9.82038 18.2059 8.38222 16.5283 7.30676C14.8507 6.23132 13.0089 5.69359 11.0028 5.69359C8.99685 5.69359 7.1541 6.23132 5.4746 7.30676C3.79509 8.38222 2.50935 9.82038 1.61738 11.6212C2.50935 13.4221 3.79414 14.8603 5.47172 15.9357C7.14933 17.0112 8.99114 17.5489 10.9972 17.5489Z" fill="#414141"/>
</svg>
