<svg width="34" height="34" viewBox="0 0 34 34" fill="none" xmlns="http://www.w3.org/2000/svg">
<circle cx="17" cy="17" r="16.5" fill="#FF8D4D" stroke="white"/>
<path d="M24.5486 10.1033C24.3383 9.3321 23.9176 8.70111 23.497 8.35055C23.2165 8.14022 22.9361 8 22.5154 8C22.3752 8 22.1649 8 22.0247 8.07011C21.8844 8.14022 21.7442 8.21033 21.604 8.35055C21.3235 8.56089 21.1132 8.91144 20.9029 9.26199C20.5523 9.9631 20.342 10.8044 20.342 10.8044L20.2719 11.3653H13.9619L13.8918 10.8044C13.8918 10.8044 13.7516 9.9631 13.3309 9.26199C13.1206 8.91144 12.9103 8.56089 12.6298 8.35055C12.4896 8.21033 12.3494 8.14022 12.2092 8.07011C12.0689 8 11.9287 8 11.7184 8C11.3678 8 11.0874 8.14022 10.8069 8.35055C10.3863 8.70111 10.0357 9.3321 9.75528 10.1033C9.54495 10.8044 9.40472 11.6458 9.40472 12.2768V19.9889C9.40472 20.5498 9.47483 21.2509 9.75528 22.0221C10.1058 23.214 10.8069 24.476 11.9287 25.3875C13.0505 26.369 14.663 27 16.9767 27H17.187C19.5007 27 21.1132 26.2989 22.235 25.3875C23.3568 24.4059 24.0579 23.214 24.4084 22.0221C24.6187 21.2509 24.759 20.4797 24.759 19.9889V12.2768C24.8291 11.7159 24.759 10.8745 24.5486 10.1033Z" fill="white"/>
<path d="M17.6778 22.7233C18.0284 22.583 18.5893 22.3026 18.5893 21.8118C18.5893 21.3211 17.8181 20.9004 17.1871 20.9004C16.5561 20.9004 15.7849 21.3211 15.7849 21.8118C15.7849 22.2325 16.3457 22.583 16.6963 22.7233C17.1871 22.8635 17.5376 22.7233 17.6778 22.7233Z" fill="#FF8D4D"/>
<path d="M13.6113 17.4649C14.2309 17.4649 14.7331 16.9627 14.7331 16.3431C14.7331 15.7236 14.2309 15.2214 13.6113 15.2214C12.9918 15.2214 12.4896 15.7236 12.4896 16.3431C12.4896 16.9627 12.9918 17.4649 13.6113 17.4649Z" fill="#FF8D4D"/>
<path d="M20.7626 17.4649C21.3821 17.4649 21.8844 16.9627 21.8844 16.3431C21.8844 15.7236 21.3821 15.2214 20.7626 15.2214C20.1431 15.2214 19.6408 15.7236 19.6408 16.3431C19.6408 16.9627 20.1431 17.4649 20.7626 17.4649Z" fill="#FF8D4D"/>
</svg>
