<svg width="36" height="36" viewBox="0 0 36 36" fill="none" xmlns="http://www.w3.org/2000/svg">
<path d="M18.0033 17.625C18.7261 17.625 19.3438 17.3676 19.8563 16.8529C20.3688 16.3382 20.625 15.7195 20.625 14.9967C20.625 14.2739 20.3676 13.6562 19.8529 13.1438C19.3382 12.6313 18.7195 12.375 17.9967 12.375C17.2739 12.375 16.6562 12.6324 16.1438 13.1471C15.6313 13.6618 15.375 14.2805 15.375 15.0033C15.375 15.7261 15.6324 16.3438 16.1471 16.8563C16.6618 17.3688 17.2805 17.625 18.0033 17.625ZM18.0188 32.55C17.8563 32.55 17.7 32.525 17.55 32.475C17.4 32.425 17.2625 32.35 17.1375 32.25C13.4125 28.975 10.625 25.9388 8.775 23.1415C6.925 20.3441 6 17.7303 6 15.3C6 11.55 7.20625 8.5625 9.61875 6.3375C12.0313 4.1125 14.825 3 18 3C21.175 3 23.9688 4.1125 26.3813 6.3375C28.7938 8.5625 30 11.55 30 15.3C30 17.725 29.075 20.3375 27.225 23.1375C25.375 25.9375 22.5875 28.975 18.8625 32.25C18.7375 32.35 18.6063 32.425 18.4688 32.475C18.3313 32.525 18.1813 32.55 18.0188 32.55Z" fill="#007AFF"/>
</svg>
