<svg width="34" height="34" viewBox="0 0 34 34" fill="none" xmlns="http://www.w3.org/2000/svg">
<circle cx="17" cy="17" r="16.5" fill="#FF8D4D" stroke="white"/>
<path d="M25.1618 8.67632V18.6317C25.1618 19.281 25.0897 20.0024 24.8733 20.7238L24.6569 21.5173C24.4404 22.1666 24.0797 22.8159 23.719 23.3208L23.2141 24.0422C21.8434 25.7736 19.8956 26.7836 17.8035 27C17.515 27 17.2985 27 17.01 27C16.7214 27 16.505 27 16.2164 27C14.1243 26.7836 12.1766 25.7736 10.8059 24.0422L10.3009 23.3208C9.9402 22.7437 9.65164 22.1666 9.36308 21.5173L9.14665 20.7238C8.93023 20.0745 8.85809 19.3531 8.85809 18.6317V8.67632V8.60418V8.53204C8.85809 8.31561 9.00237 8.09919 9.2188 8.02705C9.43522 7.95491 9.72378 8.02705 9.86806 8.24347C10.7337 9.39772 11.6716 10.6241 12.5373 11.7784C12.6815 11.9226 12.8258 11.9948 12.9701 11.9226C14.1243 11.3455 15.495 11.057 16.7935 10.9848H17.01C17.0821 10.9848 17.0821 10.9848 17.0821 10.9848C18.3806 10.9848 19.6792 11.3455 20.9056 11.9226C21.0498 11.9948 21.2663 11.9226 21.3384 11.7784C22.2041 10.6241 23.1419 9.39772 24.0076 8.24347C24.1519 8.02705 24.4404 7.95491 24.6569 8.02705C24.8733 8.09919 25.0176 8.31561 25.0176 8.53204C25.0176 8.60418 25.0176 8.60418 25.0176 8.60418C25.1618 8.60418 25.1618 8.67632 25.1618 8.67632Z" fill="white"/>
<path d="M14.4851 17.3332C14.4851 17.9824 13.9801 18.4874 13.3309 18.4874C12.6816 18.4874 12.1766 17.9824 12.1766 17.3332C12.1766 16.6839 12.6816 16.1789 13.3309 16.1789C13.9801 16.1789 14.4851 16.6839 14.4851 17.3332Z" fill="#FF810D"/>
<path d="M21.9877 17.3332C21.9877 17.9824 21.4827 18.4874 20.8335 18.4874C20.1842 18.4874 19.6792 17.9824 19.6792 17.3332C19.6792 16.6839 20.1842 16.1789 20.8335 16.1789C21.4106 16.1789 21.9877 16.6839 21.9877 17.3332Z" fill="#FF810D"/>
<path d="M17.1544 23.4651C16.2165 23.4651 15.423 22.7437 15.7116 22.2387C15.8558 21.878 16.5772 21.7337 17.0822 21.7337C17.5872 21.7337 18.3086 21.878 18.4529 22.2387C18.6693 22.7437 18.02 23.4651 17.1544 23.4651Z" fill="#FF810D"/>
</svg>
