<svg width="34" height="34" viewBox="0 0 34 34" fill="none" xmlns="http://www.w3.org/2000/svg">
<circle cx="17" cy="17" r="16.5" fill="#FF0000" stroke="white"/>
<path d="M25.8836 17.987C26.4739 17.987 26.9948 17.5008 26.9948 16.8723C27.0295 16.5598 26.8906 16.282 26.6128 16.0389L17.7474 8.24308C17.5391 8.06945 17.2613 8 17.0182 8C16.7751 8 16.4973 8.03473 16.2543 8.2778L7.34725 16.0389C7.10418 16.282 7 16.5598 7 16.8723C7 17.4973 7.48615 17.987 8.11121 17.987H9.22241V23.5569C9.22241 24.7827 10.219 25.7793 11.4448 25.7793H22.5742C23.807 25.7793 24.8036 24.7792 24.7967 23.5465L24.7723 17.9835H25.8836V17.987ZM15.8896 15.2228C15.8896 14.9173 16.1397 14.6672 16.4452 14.6672H17.5565C17.862 14.6672 18.1121 14.9173 18.1121 15.2228V16.8896H19.7789C20.0844 16.8896 20.3345 17.1397 20.3345 17.4452V18.5565C20.3345 18.862 20.0844 19.1121 19.7789 19.1121H18.1121V20.7789C18.1121 21.0844 17.862 21.3345 17.5565 21.3345H16.4452C16.1397 21.3345 15.8896 21.0844 15.8896 20.7789V19.1121H14.2228C13.9173 19.1121 13.6672 18.862 13.6672 18.5565V17.4452C13.6672 17.1397 13.9173 16.8896 14.2228 16.8896H15.8896V15.2228Z" fill="white"/>
</svg>
