<svg width="84" height="84" viewBox="0 0 84 84" fill="none" xmlns="http://www.w3.org/2000/svg">
<path d="M73.5 36.1C73.5 18 58.2 3.4 39.7 4.7C24.1 5.8 11.5 18.5 10.6 34.1C9.70003 49 19.2 61.9 32.6 66.1C36.6 67.4 40 70.2 42.1 73.8C44.3 70.1 47.8 67.3 51.9 66C64.4 61.9 73.5 50.1 73.5 36.1Z" fill="#FF8D4D"/>
<path d="M42 79.4C43.1046 79.4 44 78.5046 44 77.4C44 76.2955 43.1046 75.4 42 75.4C40.8954 75.4 40 76.2955 40 77.4C40 78.5046 40.8954 79.4 42 79.4Z" fill="#FF8D4D"/>
<path d="M59.1492 20.5008C58.5535 19.3094 57.8088 18.2669 56.7663 17.5223C55.7238 16.7776 54.3834 16.1819 52.7452 16.1819C52.0006 16.1819 51.2559 16.3308 50.5113 16.6287C49.3198 17.0755 48.4263 17.8201 47.8305 18.5648C46.788 19.7562 46.1923 21.0966 45.8945 22.1391C45.7455 22.4369 45.7455 22.7348 45.5966 22.8837H43.0648H41.5755H40.0862H37.4055C37.4055 22.5859 37.2565 22.4369 37.1076 22.1391C36.6608 21.0966 36.0651 19.7562 35.1715 18.5648C34.5758 17.8201 33.6822 17.0755 32.4908 16.6287C31.8951 16.3308 31.1504 16.1819 30.2569 16.1819C28.7676 16.1819 27.2783 16.7776 26.2358 17.5223C25.1932 18.4158 24.4486 19.4583 24.0018 20.5008C22.8104 22.7348 22.3636 25.4155 22.3636 27.5005C22.3636 29.8834 22.3636 39.4149 22.3636 42.9892C22.3636 45.0742 22.9593 47.755 24.2997 50.5846C25.789 53.4143 28.1718 56.095 31.8951 57.8822C34.4269 59.0736 37.5544 59.8182 41.2776 59.8182C41.4266 59.8182 41.4266 59.8182 41.5755 59.8182C41.7244 59.8182 41.7244 59.8182 41.8734 59.8182C45.5966 59.8182 48.7241 59.0736 51.2559 57.8822C54.9792 56.095 57.511 53.2653 58.8513 50.5846C60.3406 47.755 60.7874 45.0742 60.7874 42.9892C60.7874 39.4149 60.7874 29.8834 60.7874 27.5005C60.7874 25.4155 60.3406 22.8837 59.1492 20.5008ZM57.8088 42.9892C57.8088 44.0317 57.6599 45.521 57.0642 47.1592C56.3195 49.5421 54.8302 52.0739 52.4474 53.8611C50.0645 55.7971 46.6391 57.1375 41.7244 57.1375C41.5755 57.1375 41.5755 57.1375 41.4266 57.1375C41.2776 57.1375 41.2776 57.1375 41.1287 57.1375C36.214 57.1375 32.7887 55.7971 30.4058 53.8611C28.0229 51.925 26.5336 49.3932 25.789 47.1592C25.3422 45.6699 25.0443 44.1806 25.0443 42.9892C25.0443 39.4149 25.0443 29.8834 25.0443 27.5005C25.0443 26.1602 25.3422 24.5219 25.789 23.0326C26.2358 21.5433 27.1293 20.203 28.0229 19.4583C28.9165 19.1605 29.5122 18.8626 30.2569 18.8626C30.7036 18.8626 31.0015 18.8626 31.2994 19.0115C31.5972 19.1605 31.8951 19.3094 32.1929 19.4583C32.7887 19.9051 33.2354 20.6498 33.6822 21.3944C34.4269 22.8837 34.7247 24.5219 34.8737 24.5219L35.0226 25.5644H40.0862H41.5755H43.0648H48.2773L48.4263 24.5219C48.4263 24.5219 48.7241 22.8837 49.6177 21.3944C50.0645 20.6498 50.5113 19.9051 51.107 19.4583C51.4049 19.1605 51.7027 19.0115 52.0006 19.0115C52.1495 19.0115 52.5963 18.8626 52.8941 18.8626C53.6388 18.8626 54.2345 19.1605 54.8302 19.6073C55.7238 20.3519 56.4685 21.5433 57.0642 23.1816C57.511 24.6709 57.8088 26.3091 57.8088 27.6495C57.8088 29.8834 57.8088 39.4149 57.8088 42.9892Z" fill="white"/>
<path d="M46.0434 51.0313C45.2987 51.0313 44.703 51.0313 43.9584 50.7335C43.5116 50.5845 43.0648 50.2867 42.618 49.8399C43.8094 49.542 44.5541 48.7974 44.5541 47.9038C44.5541 46.8613 43.2137 45.9677 41.5755 45.9677C39.9373 45.9677 38.5969 46.8613 38.5969 47.9038C38.5969 48.7974 39.3415 49.542 40.533 49.8399C40.0862 50.1377 39.6394 50.5845 39.1926 50.7335C38.5969 51.0313 37.8523 51.0313 37.1076 51.0313C36.6608 51.0313 36.363 51.1802 36.214 51.627C36.0651 52.0738 36.5119 52.3717 36.8097 52.3717C36.9587 52.3717 37.2565 52.3717 37.4055 52.3717C38.1501 52.3717 38.8948 52.2228 39.4905 51.9249C40.0862 51.627 40.6819 51.3292 41.2776 50.7335C41.8734 51.1802 42.4691 51.627 43.0648 51.9249C43.8094 52.2228 44.5541 52.3717 45.1498 52.3717C45.2987 52.3717 45.5966 52.3717 45.7455 52.3717C46.1923 52.3717 46.4902 51.9249 46.3412 51.627C46.1923 51.3292 46.3412 51.0313 46.0434 51.0313Z" fill="white"/>
<path d="M33.98 38.8191C35.2961 38.8191 36.3629 37.7522 36.3629 36.4362C36.3629 35.1202 35.2961 34.0533 33.98 34.0533C32.664 34.0533 31.5972 35.1202 31.5972 36.4362C31.5972 37.7522 32.664 38.8191 33.98 38.8191Z" fill="white"/>
<path d="M49.1708 38.8191C50.4869 38.8191 51.5537 37.7522 51.5537 36.4362C51.5537 35.1202 50.4869 34.0533 49.1708 34.0533C47.8548 34.0533 46.788 35.1202 46.788 36.4362C46.788 37.7522 47.8548 38.8191 49.1708 38.8191Z" fill="white"/>
</svg>
