<svg width="34" height="34" viewBox="0 0 34 34" fill="none" xmlns="http://www.w3.org/2000/svg">
<circle cx="17" cy="17" r="16.5" fill="#7342FF" stroke="white"/>
<path d="M8.15 15H25.85C26.4844 15 27 14.4844 27 13.85C27 13.6219 26.9312 13.4 26.8062 13.2125L24.4438 9.66875C24.1656 9.25 23.7 9 23.1969 9H10.8031C10.3031 9 9.83438 9.25 9.55625 9.66875L7.19375 13.2094C7.06875 13.4 7 13.6219 7 13.8469C7 14.4844 7.51562 15 8.15 15ZM9 16V21V23.5C9 24.3281 9.67188 25 10.5 25H17.5C18.3281 25 19 24.3281 19 23.5V21V16H17V21H11V16H9ZM23 16V24C23 24.5531 23.4469 25 24 25C24.5531 25 25 24.5531 25 24V16H23Z" fill="white"/>
</svg>
