<svg width="84" height="84" viewBox="0 0 84 84" fill="none" xmlns="http://www.w3.org/2000/svg">
<path d="M73.5 36.1C73.5 18 58.2 3.4 39.7 4.7C24.1 5.8 11.5 18.5 10.6 34.1C9.70003 49 19.2 61.9 32.6 66.1C36.6 67.4 40 70.2 42.1 73.8C44.3 70.1 47.8 67.3 51.9 66C64.4 61.9 73.5 50.1 73.5 36.1Z" fill="#FF8D4D"/>
<path d="M42 79.4C43.1046 79.4 44 78.5046 44 77.4C44 76.2955 43.1046 75.4 42 75.4C40.8954 75.4 40 76.2955 40 77.4C40 78.5046 40.8954 79.4 42 79.4Z" fill="#FF8D4D"/>
<path d="M62.9054 42.8659L60.1349 43.3033C60.2807 42.1368 60.4265 40.9703 60.4265 39.8038V19.3898C60.4265 19.244 60.4265 19.0982 60.2807 18.9524C59.9891 17.3484 58.6768 16.1819 57.0728 16.1819C56.0521 16.1819 55.0314 16.6193 54.3023 17.4942C52.6984 19.5356 51.2402 21.577 49.6363 23.6184C47.3033 22.5977 44.6786 22.1603 42.1998 22.0145C42.0539 22.0145 41.9081 22.0145 41.9081 22.0145C41.7623 22.0145 41.6165 22.0145 41.6165 22.0145C39.1377 22.0145 36.513 22.5977 34.18 23.6184C32.576 21.577 31.1179 19.5356 29.5139 17.4942C28.9307 16.7651 28.0558 16.1819 26.8893 16.1819C25.2853 16.1819 23.8272 17.3484 23.6814 18.9524C23.6814 19.0982 23.5355 19.244 23.5355 19.3898V39.8038C23.5355 40.9703 23.6814 42.1368 23.8272 43.3033L21.0567 42.8659C20.6193 42.7201 20.3276 43.0117 20.1818 43.4491C20.1818 43.8866 20.3276 44.1782 20.7651 44.324L24.1188 44.9073C24.5562 46.3654 25.1395 47.8236 25.8686 49.2817L21.7858 49.7191C21.3483 49.7191 21.0567 50.1566 21.2025 50.4482C21.2025 50.8857 21.4942 51.1773 21.9316 51.1773L26.7435 50.7398C29.8056 55.2601 34.6174 58.468 40.1584 58.9054C40.7416 58.9054 41.3249 59.0512 41.9081 59.0512C42.4914 59.0512 43.0746 59.0512 43.6579 58.9054C49.1988 58.3222 54.0107 55.2601 57.0728 50.7398L61.8847 51.1773C62.3221 51.1773 62.6137 50.8857 62.6137 50.4482C62.6137 50.0108 62.3221 49.7191 62.0305 49.7191L58.0935 49.1359C58.8226 47.8236 59.4058 46.3654 59.8433 44.7615L63.197 44.1782C63.6344 44.1782 63.9261 43.7408 63.7803 43.3033C63.7803 43.0117 63.3428 42.8659 62.9054 42.8659ZM57.6561 39.8038C57.6561 41.1161 57.5102 42.5742 57.2186 43.7408L51.9693 44.6156C51.5319 44.6156 51.2402 45.0531 51.386 45.4905C51.386 45.7822 51.8235 46.0738 52.1151 46.0738H52.2609L56.7812 45.3447C56.3437 46.5112 55.7605 47.6777 55.0314 48.8443L51.386 48.5526C50.9486 48.5526 50.657 48.8442 50.657 49.1359C50.657 49.4275 50.9486 49.8649 51.2402 49.8649L54.0107 50.1566C51.3861 53.2187 47.7407 55.4059 43.6579 55.6975C43.2205 55.6975 42.6372 55.6975 42.1998 55.6975C41.7623 55.6975 41.1791 55.6975 40.7416 55.6975C36.6588 55.2601 33.0135 53.2187 30.3888 50.1566L33.1593 49.8649C33.5967 49.8649 33.8884 49.4275 33.7425 49.1359C33.5967 48.8442 33.3051 48.4068 33.0135 48.5526L29.3681 48.8443C28.639 47.8236 28.0558 46.657 27.6183 45.3447L32.1386 46.0738H32.2844C32.576 46.0738 33.0135 45.7822 33.0135 45.4905C33.0135 45.0531 32.8677 44.7615 32.4302 44.6156L27.1809 43.7408C26.8893 42.4284 26.7435 41.1161 26.7435 39.8038V19.8272C26.7435 19.6814 26.7435 19.5356 26.7435 19.5356C26.7435 19.244 27.1809 18.9524 27.4725 19.3898C29.2223 21.7228 31.1179 24.2017 32.8677 26.5347C33.3051 27.1179 34.0342 27.2638 34.6174 26.9721C36.9504 25.8056 39.4293 25.2224 41.9081 25.2224C42.0539 25.2224 42.0539 25.2224 42.1998 25.2224C42.3456 25.2224 42.3456 25.2224 42.4914 25.2224C44.9702 25.2224 47.4491 25.8056 49.7821 26.9721C50.3654 27.2638 51.2402 27.1179 51.5319 26.5347C53.2816 24.2017 55.0314 21.7228 56.927 19.3898C57.2186 19.0982 57.6561 19.244 57.6561 19.5356C57.6561 19.6814 57.6561 19.8272 57.6561 19.8272V39.8038Z" fill="white"/>
<path d="M34.6174 39.6578C35.9059 39.6578 36.9504 38.6133 36.9504 37.3248C36.9504 36.0363 35.9059 34.9918 34.6174 34.9918C33.3289 34.9918 32.2844 36.0363 32.2844 37.3248C32.2844 38.6133 33.3289 39.6578 34.6174 39.6578Z" fill="white"/>
<path d="M49.4904 39.6578C50.7789 39.6578 51.8234 38.6133 51.8234 37.3248C51.8234 36.0363 50.7789 34.9918 49.4904 34.9918C48.2019 34.9918 47.1573 36.0363 47.1573 37.3248C47.1573 38.6133 48.2019 39.6578 49.4904 39.6578Z" fill="white"/>
<path d="M42.0539 45.9279C41.0332 45.9279 39.575 46.2195 39.2834 46.9486C38.846 47.9693 40.4499 49.5732 42.1997 49.4274C43.9495 49.4274 45.2618 47.9693 44.8243 46.9486C44.3869 46.2195 42.9288 45.9279 42.0539 45.9279Z" fill="white"/>
</svg>
