<svg width="22" height="22" viewBox="0 0 22 22" fill="none" xmlns="http://www.w3.org/2000/svg">
<g clip-path="url(#clip0_331_1995)">
<path d="M7.5625 22C5.45417 22 3.66667 21.2667 2.2 19.8C0.733333 18.3333 0 16.5458 0 14.4375C0 12.3292 0.733333 10.5417 2.2 9.07502C3.66667 7.60835 5.45417 6.87502 7.5625 6.87502C8.36458 6.87502 9.14757 6.99914 9.91145 7.2474C10.6754 7.49568 11.382 7.85662 12.0312 8.33021L18.0698 2.29166H15.3542C15.0295 2.29166 14.7574 2.18146 14.5378 1.96108C14.3182 1.74069 14.2084 1.4676 14.2084 1.14182C14.2084 0.816032 14.3182 0.544286 14.5378 0.326578C14.7574 0.108869 15.0295 1.52588e-05 15.3542 1.52588e-05H20.8542C21.1788 1.52588e-05 21.451 0.109821 21.6706 0.329431C21.8902 0.549065 22 0.8212 22 1.14584V6.64584C22 6.9705 21.8898 7.24263 21.6694 7.46224C21.449 7.68185 21.1759 7.79166 20.8502 7.79166C20.5244 7.79166 20.2526 7.68185 20.0349 7.46224C19.8172 7.24263 19.7084 6.9705 19.7084 6.64584V3.93021L13.6698 9.93439C14.1358 10.5913 14.4948 11.3037 14.7469 12.0714C14.999 12.8391 15.125 13.6278 15.125 14.4375C15.125 16.5458 14.3917 18.3333 12.925 19.8C11.4583 21.2667 9.67083 22 7.5625 22ZM7.56714 9.16666C6.11267 9.16666 4.86979 9.68075 3.83852 10.7089C2.80727 11.7371 2.29164 12.9784 2.29164 14.4329C2.29164 15.8874 2.80573 17.1302 3.83391 18.1615C4.86207 19.1927 6.10338 19.7084 7.55786 19.7084C9.01233 19.7084 10.2552 19.1943 11.2865 18.1661C12.3177 17.1379 12.8334 15.8966 12.8334 14.4422C12.8334 12.9877 12.3193 11.7448 11.2911 10.7135C10.2629 9.68228 9.02162 9.16666 7.56714 9.16666Z" fill="#0A84FF"/>
</g>
<defs>
<clipPath id="clip0_331_1995">
<rect width="22" height="22" fill="white"/>
</clipPath>
</defs>
</svg>
