<svg width="28" height="28" viewBox="0 0 28 28" fill="none" xmlns="http://www.w3.org/2000/svg">
<g clip-path="url(#clip0_70_3856)">
<path d="M27.2398 0.306215C27.7921 0.689027 28.082 1.35075 27.9781 2.01246L24.4781 24.7625C24.3961 25.2929 24.0734 25.7578 23.6031 26.0203C23.1328 26.2828 22.5695 26.3156 22.0718 26.1078L15.5312 23.3898L11.7851 27.4422C11.2984 27.9726 10.5328 28.1476 9.86012 27.8851C9.18746 27.6226 8.74996 26.9718 8.74996 26.25V21.6781C8.74996 21.4593 8.83199 21.2515 8.97965 21.0929L18.1453 11.0906C18.4625 10.7461 18.4515 10.2156 18.1234 9.88747C17.7953 9.55934 17.2648 9.53747 16.9203 9.84918L5.79683 19.7312L0.967928 17.314C0.388241 17.0242 0.0163655 16.4445 -4.07515e-05 15.7992C-0.016447 15.1539 0.322616 14.5523 0.880428 14.2297L25.3804 0.229652C25.9656 -0.103941 26.6875 -0.0711288 27.2398 0.306215Z" fill="#8A8A8E"/>
</g>
<defs>
<clipPath id="clip0_70_3856">
<rect width="28" height="28" fill="white"/>
</clipPath>
</defs>
</svg>
