<svg width="36" height="36" viewBox="0 0 36 36" fill="none" xmlns="http://www.w3.org/2000/svg">
<path d="M7.3125 8.5125C6.99375 8.5125 6.72656 8.40406 6.51094 8.18719C6.29531 7.97029 6.1875 7.70154 6.1875 7.38094C6.1875 7.06031 6.29531 6.79375 6.51094 6.58125C6.72656 6.36875 6.99375 6.2625 7.3125 6.2625H28.7625C29.0812 6.2625 29.3484 6.37094 29.5641 6.58781C29.7797 6.80471 29.8875 7.07346 29.8875 7.39406C29.8875 7.71469 29.7797 7.98125 29.5641 8.19375C29.3484 8.40625 29.0812 8.5125 28.7625 8.5125H7.3125ZM7.5 29.775C7.18125 29.775 6.91406 29.6672 6.69844 29.4516C6.48281 29.2359 6.375 28.9688 6.375 28.65V20.5875H5.4375C5.084 20.5875 4.79562 20.45 4.57237 20.175C4.34912 19.9 4.275 19.5875 4.35 19.2375L6 11.6625C6.05 11.3875 6.17812 11.1688 6.38437 11.0063C6.59062 10.8438 6.825 10.7625 7.0875 10.7625H28.95C29.2125 10.7625 29.4469 10.8438 29.6531 11.0063C29.8594 11.1688 29.9875 11.3875 30.0375 11.6625L31.6875 19.2375C31.7625 19.5875 31.6884 19.9 31.4651 20.175C31.2419 20.45 30.9535 20.5875 30.6 20.5875H29.6625V28.65C29.6625 28.9688 29.5541 29.2359 29.3372 29.4516C29.1203 29.6672 28.8515 29.775 28.5309 29.775C28.2103 29.775 27.9437 29.6672 27.7312 29.4516C27.5187 29.2359 27.4125 28.9688 27.4125 28.65V20.5875H20.7V28.65C20.7 28.9688 20.5922 29.2359 20.3766 29.4516C20.1609 29.6672 19.8937 29.775 19.575 29.775H7.5ZM8.625 27.525H18.45V20.5875H8.625V27.525Z" fill="#AAAAAA"/>
</svg>
